<svg height="820" viewBox="0 0 619 820" width="619" xmlns="http://www.w3.org/2000/svg"><path d="m614.992052 739.531345c3.435118 4.523637 4.743157 10.311409 3.589539 15.870577-1.155132 5.560682-4.659891 10.349257-9.610457 13.130355-58.948074 32.776686-126.793542 51.467723-198.970377 51.467723-226.284786 0-410.000757-183.714457-410.000757-410.000757 0-226.284786 183.715971-409.999243 410.000757-409.999243 65.544287 0 127.517203 15.4133688 182.48817 42.8095304 5.209449 2.617593 8.983688 7.4167659 10.300811 13.0955348 1.317124 5.6787689.040877 11.6497272-3.485077 16.2929648-12.506614 16.5109714-30.598134 40.332733-41.615036 54.840769-5.541001 7.295651-15.387632 9.790616-23.733954 6.016377-37.846852-17.006029-79.805551-26.456009-123.954914-26.456009-167.451771 0-303.400076 135.949819-303.400076 303.400076 0 167.451771 135.948305 303.400076 303.400076 303.400076 50.094584 0 97.368708-12.165979 139.027648-33.703214 8.478034-4.420689 18.90753-2.084688 24.689246 5.52889 11.174352 14.67154 29.047865 38.205655 41.274401 54.30635z" fill="#fefdf6" fill-rule="evenodd" transform="translate(-.0008)"/></svg>