<?xml version="1.0" encoding="UTF-8"?>
<svg width="581px" height="546px" viewBox="0 0 581 546" version="1.1" xmlns="http://www.w3.org/2000/svg" xmlns:xlink="http://www.w3.org/1999/xlink">
    <title>Shape</title>
    <g id="Logo" stroke="none" stroke-width="1" fill="none" fill-rule="evenodd">
        <g id="Light-Debug" transform="translate(-341, -232)" fill="#FBE0A6">
            <g id="Logo" transform="translate(101.9992, 102)">
                <path d="M685.947142,138.64008 C689.483693,133.981704 694.912663,131.143076 700.75645,130.894791 C706.598724,130.646505 712.248728,133.015813 716.168305,137.357778 C780.730049,209.857081 820.001514,305.378788 820.001514,409.999243 C820.001514,507.873605 785.632169,597.783157 728.316117,668.308289 C724.508571,672.937901 718.791954,675.570633 712.798287,675.459195 C706.804619,675.339001 701.193977,672.486748 697.568104,667.711799 C684.625477,650.734535 666.214517,626.490386 655.332355,612.160994 C650.05932,605.21809 649.995735,595.630341 655.174906,588.617796 C691.793957,538.508073 713.400833,476.757706 713.400833,409.999243 C713.400833,337.147193 687.666971,270.257018 644.802939,217.930894 C638.986402,210.915321 638.76991,200.817377 644.282146,193.559574 C655.25363,179.057594 673.378456,155.191928 685.947142,138.64008 Z M255.977536,448.275555 C247.858648,447.052537 241.35705,440.908593 239.677486,432.871498 C237.996681,424.836029 241.494417,416.601113 248.44317,412.230994 C318.958378,367.875586 455.07465,282.256965 525.465986,237.979436 C532.406519,233.613336 541.32986,234.019325 547.846332,238.997912 C554.361178,243.975258 557.09855,252.47806 554.710442,260.322215 C530.493707,339.877161 483.666757,493.712867 459.407443,573.407801 C457.017618,581.260944 449.991753,586.800367 441.797047,587.29094 C433.601098,587.78314 425.96579,583.12648 422.651586,575.614611 C402.170709,529.189681 374.341062,466.098907 374.341062,466.098907 C374.341062,466.098907 306.151927,455.831285 255.977536,448.275555 Z" id="Shape"></path>
            </g>
        </g>
    </g>
</svg>