<svg height="18" viewBox="0 0 18 18" width="18" xmlns="http://www.w3.org/2000/svg"><g fill="none"><circle cx="9" cy="9" fill="#000" opacity=".6" r="9"/><circle cx="9" cy="9" fill="#51585E" r="8.25"/><path d="m14.1563206 5.31996974h-1.37501l-.153811-.29514695c-.116437-.22359297-.3545039-.36484026-.6148782-.3648543h-1.1520829l-.5860614-.56265107c-.2167835-.20789337-.58693916-.06063586-.58693916.23326832v3.09042073l2.75002016.94274859v-.73386521h.6874318c.7594737 0 1.3750101-.59090474 1.3750101-1.3200025v-.65999423c0-.18232885-.153811-.33000062-.3437525-.33000062zm-2.4062676.99000187c-.1899415 0-.3437525-.14767177-.3437525-.33000063 0-.18232183.153811-.33000062.3437525-.33000062.1899416 0 .3437525.14767879.3437525.33000062 0 .18232886-.1538109.33000063-.3437525.33000063zm-6.18754523 1.65000312c-.37898349 0-.68750503-.29616503-.68750503-.65998721 0-.36444005-.3078706-.65999423-.68749771-.65999423s-.68750503.29555418-.68750503.65999423c0 .85919524.57642908 1.58505619 1.37501006 1.85832479v4.41168709c0 .1822727.15382559.3300006.34375251.3300006h1.37501006c.1899196 0 .34375251-.1477279.34375251-.3300006v-2.3100044h3.43752516v2.3100044c0 .1822727.1538109.3300006.3437525.3300006h1.3750101c.1899415 0 .3437525-.1477279.3437525-.3300006v-4.50549152l-3.22161934-1.10451911z" fill="#000"/></g></svg>