<svg height="18" viewBox="0 0 18 18" width="18" xmlns="http://www.w3.org/2000/svg"><g fill="none"><rect fill="#000" height="18" opacity=".6" rx="1.875" width="18"/><rect fill="#2f6499" height="16.5" rx="1.5" width="16.5" x=".75" y=".75"/><path d="m14.6401992 13.7660502.0003795.5578086c0 .3734224-.3027187.6761412-.6761412.6761412s-.6761412-.3027188-.6761412-.6761412l-.0009015-.4547481h.6770427c.2354293 0 .4624274-.0360977.6757617-.1030605zm-.6757617-10.26443757c.9957932 0 1.8030432.80724992 1.8030432 1.80304315v6.31065102c0 .9957932-.80725 1.8030431-1.8030432 1.8030431l-1.3859655.0015867c.3433337-.3964396.551067-.9135307.551067-1.4791406v-1.4527451l.834899.0003539c.4978966 0 .9015215-.4036249.9015215-.90152154v-3.3807059l-1.7364205-.00101205v-.45059212l1.7364205.00084338v-.45076079c0-.49789662-.4036249-.90152157-.9015215-.90152157l-.9167424.00057499c-.0942547-.34021382-.2660622-.648193-.4951939-.9037092zm.2253808 7.66293337c-.3734224 0-.6761411.3027187-.6761411.6761412s.3027187.6761412.6761411.6761412c.3734225 0 .6761412-.3027187.6761412-.6761412s-.3027187-.6761412-.6761412-.6761412zm-10.60343311 2.6012227c.21359468.0671431.44089896.103342.67665796.103342h.67523966l.00090152.4547481c0 .3734224-.30271872.6761412-.67614118.6761412-.37342247 0-.67614118-.3027188-.67614118-.6761412zm7.66307061.0002815.0003796.5578086c0 .3734224-.3027188.6761412-.6761412.6761412-.3734225 0-.6761412-.3027188-.6761412-.6761412l-.0009015-.4547481h.6770427c.1569528 0 .3101585-.0160434.4580666-.0465799zm-.6757616-10.26443757c.9957932 0 1.8030431.80724992 1.8030431 1.80304315v6.31065102c0 .9957932-.8072499 1.8030431-1.8030431 1.8030431h-6.31065105c-.99579324 0-1.80304315-.8072499-1.80304315-1.8030431v-6.31065102c0-.99579323.80724991-1.80304315 1.80304315-1.80304315zm-6.53603099 7.66293337c-.37342247 0-.67614119.3027187-.67614119.6761412s.30271872.6761412.67614119.6761412c.37342246 0 .67614118-.3027187.67614118-.6761412s-.30271872-.6761412-.67614118-.6761412zm6.76141179 0c-.3734224 0-.6761412.3027187-.6761412.6761412s.3027188.6761412.6761412.6761412c.3734225 0 .6761412-.3027187.6761412-.6761412s-.3027187-.6761412-.6761412-.6761412zm.6761412-4.95836864h-8.11369418v3.3807059c0 .49789664.40362497.90152154.90152158.90152154h6.310651c.4978967 0 .9015216-.4036249.9015216-.90152154zm-.9015216-1.80304315h-6.310651c-.49789661 0-.90152158.40362495-.90152158.90152157v.45076079h8.11369418v-.45076079c0-.49789662-.4036249-.90152157-.9015216-.90152157z" fill="#000" fill-rule="evenodd"/></g></svg>