<svg height="12" viewBox="0 0 12 12" width="12" xmlns="http://www.w3.org/2000/svg"><g fill="none"><circle cx="6.00003" cy="6.00003" fill="#000" opacity=".6" r="6.00003"/><circle cx="6.00003" cy="6.00003" fill="#51585E" r="5.500028"/><path d="m4.52666667 10 .85834486-.69717241.07331713-2.98000116c-.35512364-.1925765-.59625967-.56862175-.59625967-1.00098735 0-.45227436.26385406-.8429223.64602851-1.02641015l.0403426-1.62876226h.90311988l.0403426 1.62876226c.38217445.18348785.64602851.57413579.64602851 1.02641015 0 .4323656-.24113603.80841085-.59625967 1.00098735l.07331713 2.98000116.85834478.69717241zm-.49968184-7.15388459-.01401291.55991301c-.69676283.35550125-1.17389145 1.07993627-1.17389145 1.91581066 0 .79804474.43491853 1.49450881 1.08066352 1.86530016l-.01367057.55993913c-.92686656-.41430759-1.57274009-1.34434752-1.57274009-2.42523929 0-1.12730035.70252591-2.09051698 1.6936515-2.47572367zm3.94620307.00006714c.99103448.38525146 1.69347877 1.34842167 1.69347877 2.47565653 0 1.08089837-.64588142 2.01094306-1.57275706 2.42524688l-.01344967-.56006384c.64563263-.37082087 1.08045959-1.06722231 1.08045959-1.86518304 0-.83586687-.47712004-1.56029638-1.17387265-1.91580107zm-3.14146074.69804009-.01948518.56522913c-.42308624.23851278-.70879368.69208477-.70879368 1.21238731 0 .486005.24928213.91378704.62695943 1.16245916l-.01950519.56526598c-.6565896-.29817169-1.11320138-.95962472-1.11320138-1.72772514 0-.81438766.5133026-1.50888707 1.234026-1.77761644zm2.33679809.00009407c.72059082.2687974 1.23377356.96322972 1.23377356 1.7775223 0 .76800168-.45649438 1.42938338-1.11294816 1.72761013l-.01950301-.56531917c.37753429-.24869679.62670404-.67639552.62670404-1.16229096 0-.52019846-.28559315-.97369306-.70853979-1.21224415z" fill="#000" fill-rule="evenodd"/></g></svg>