<svg height="18" viewBox="0 0 18 18" width="18" xmlns="http://www.w3.org/2000/svg"><path d="m9.43 4 .05904754 2.34800908c.71123856.20715188 1.23095246.86387856 1.23095246 1.64199092 0 .75070117-.4837421 1.38841832-1.15651373 1.61843898l.10651373 4.34580242 1.29 1.0457586h-3.92l1.28751729-1.0457586.10708348-4.35346227c-.66133778-.23626442-1.13460077-.86825353-1.13460077-1.61077913 0-.77189916.5114472-1.42434342 1.21395161-1.63694279l.05870854-2.35305721zm-1.928961 1.31633396-.02922778.8478437c-.63462935.35776917-1.06319052 1.03812715-1.06319052 1.81858096 0 .7290075.3739232 1.37068057.94043915 1.74368875l-.02925779.84789893c-.9848844-.4472575-1.66980206-1.43943705-1.66980206-2.59158768 0-1.22158149.7699539-2.2633306 1.851039-2.66642466zm2.998961.00014111c1.0808862.4031961 1.8506603 1.44484458 1.8506603 2.66628344 0 1.15200252-.6847415 2.14407509-1.6694222 2.59141519l-.0292545-.84797874c.5663014-.37304519.940056-1.01459328.940056-1.74343645 0-.78029768-.4283897-1.46053959-1.0628096-1.81836622z" fill="#777777" fill-rule="evenodd"/></svg>