<svg height="18" viewBox="0 0 18 18" width="18" xmlns="http://www.w3.org/2000/svg"><g fill="none"><circle cx="9" cy="9" fill="#000" opacity=".6" r="9"/><circle cx="9" cy="9" fill="#8c491c" r="8.25"/><path d="m11.8 8.518c.0617112 0 .1146065.01985612.1586859.05956835.0440793.03971222.2038672.97184647.2743942 1.27410065.070527.3022543.1636448.5499041.2793531.7429497.1157084.1930456.2688843.3469304.4595278.4616546l.132783.0699267.0986353.0465112.0789111.0314669c.0615155.0232237.1264461.0448281.1947915.0648132l.2238421.0569944 1.0072826.1846799.1923409.0428297c.0291714.0081023.0478877.0151042.0533334.0206917.0440794.0452279.0661191.0998322.0661191.163813s-.0220397.1185851-.0661191.163813c-.0440793.0452277-.9576249.1831174-1.2529569.2482013-.2953319.0650841-.5383196.1549882-.728963.2697124-.1906435.1147242-.3438194.268609-.4595278.4616546-.1157083.1930456-.2088261.4401439-.2793531.741295l-.216668 1.0726977-.0276905.1164364c-.0125115.0477421-.0228227.0782877-.0300357.0849666-.0440794.0408153-.0969747.061223-.1586859.061223s-.1146065-.0204077-.1586859-.061223c-.0154277-.0142854-.0430049-.1218793-.0747939-.2671616l-.1698467-.8431262c-.0286516-.1334771-.0603337-.2568885-.0950462-.3702338l-.0790958-.2276618-.0341331-.0821763c-.0815469-.1864269-.1845826-.3419664-.3091068-.4666187-.1245243-.1246524-.2793531-.2266907-.4644867-.3061151-.1388501-.0595684-.2993956-.112001-.48163622-.1572978l-.28539402-.0618097-.75750468-.1446149-.14015877-.0318776c-.05841402-.0146936-.09704961-.027225-.1056451-.0362705-.0429774-.0452279-.06446611-.0998322-.06446611-.163813s.02148871-.1185851.06446611-.163813c.01025599-.0107929.07021398-.0268628.15956703-.0459609l1.0933898-.2022404c.29423006-.0650841.53666676-.1549882.72731016-.2697124.1906433-.1147242.3443702-.268609.4611806-.4616546.0876079-.1447842.1621985-.3202832.2237719-.5264973l.0725048-.28501663.1940886-.97156492.0313246-.13525024c.0141601-.05571735.0257991-.09159359.0337105-.09872126.0440794-.03971223.0969747-.05956835.1586859-.05956835zm-5.00462261 4.1774895.47578827.0502628.32995434.0263277.57765236.0353901.42056496.0137938-.00064825 1.2530304-.16598532-.0165074-.1645867-.02175c-.27180754-.0405405-.53655878-.1026839-.79245105-.1846276l-.13594638-.0456834c-.13201893-.0464711-.26153181-.0982596-.38828151-.1551086-.05706076-.3091628-.10909042-.6279724-.15606072-.9551278zm3.49355501.0862286c.1073473.0519869.1949753.1131628.264923.1831825.0618318.0618953.1173885.137901.1663487.2292948l.0642181.1378745.0826828.2351502.0434237.1588536.1812332-.0754564c-.1267497.056849-.2562626.1086375-.3882815.1551086l-.1359464.0456834c-.2558923.0819437-.5206435.1440871-.79245105.1846276l-.1645867.02175-.16598532.0165074-.00064825-1.2530304.42056496-.0137938zm-5.00088081-.332281.31700206.0629752.32130216.0574943.07527007.5222404c-.16415505-.1216118-.32044126-.2530919-.46817922-.3934614zm1.25234286-2.3854766-.01697434-.34550972.56871797.06276939.29474017.02592572.53415795.03577645.2744038.01183766.40389732.01321523-.00257387 1.23477077c-.17012988.0386431-.19321523.0571874-.28575534.1545723-.12479698.1313318-.19100811.2995791-.19100811.4806817 0 .0517111.00539819.102374.01601703.1514287l.01894297.0712113-.04497194-.0011864c-.48606707-.0241334-.96155343-.0673328-1.42417187-.1280071-.06359528-.570574-.11240648-1.1616257-.14542174-1.767486zm-2.5707958-.69764234-.00799865-.15848097.46374374.12249833.41101876.09679424.24281734.05218007.22562016.04425017.36954891.06866044.02373455.51387826c.01222804.2214825.02660821.4410595.04343401.6582534l.036665.4701329.04404763.460615c-.43865499-.0810959-.86350016-.1782458-1.27238702-.2899773-.10948174-.2053937-.20519192-.4191686-.28579411-.6404323l-.06331389-.1835808-.06717924-.2269141-.06067814-.2491812-.04914876-.25960746-.03519936-.25913167zm6.93780455.41902344-.0435191.16937316c-.0459687.15259784-.1054641.29258034-.1715302.40176384-.0782682.1293494-.1784172.2296012-.3048028.3056568-.1442767.0868219-.3407964.1596984-.58947913.2147073l-.35419197.0644373-.00001732-1.07330477.40297732-.01321523.2753238-.01183766.5341579-.03577645zm3.1741968-.57750441-.0079986.15848097-.018931.21995701-.0351993.25913167-.0491488.25960746-.0606781.2491812-.0809808.269015-.0495124.1414799-.038871.0974696-.1829972-.0492608-.1125232-.0390742-.0709962-.028395-.0728261-.0352927-.1146348-.0608747c-.1030276-.0628713-.2022409-.1625438-.2793153-.2911331-.0711197-.1186548-.1343991-.2728503-.1877866-.46229722l-.0381539-.14869032c-.012555-.05380655-.0212612-.09377636-.0431441-.2042991l.3261176-.06353303.2428173-.05218007.5259029-.12581591zm-7.28117308-2.40395665.13461308.01487946.39744.03496.24288.01656.54924.02944.47493399.01497029.00032842 2.10921677-.53957507-.01892302c-.17831449-.00871986-.35519164-.01983347-.53051982-.0332675l-.52167519-.04676486c-.17226584-.01787207-.34289623-.03794812-.5117882-.06013977-.00435954-.22540378-.0065633-.4522648-.0065633-.68031422l.00277917-.46781769.0876671-.4291617c.02794853-.11865082.06308659-.22301518.10250723-.30715276l.04074051-.0771753c.02248072-.03750638.0479442-.07038807.07699208-.0993097zm4.72425258-.02941621.0159851.46112683c.0077652.28686039.0120325.57628165.0127014.86770067-.080686.02886662-.1545689.07361469-.2199504.13251862-.0881687.07943374-.1112525.11559931-.1425074.2210899l-.0483816.1862026-.0567095.27651916-.5723846.05209443c-.1753282.01343403-.3522053.02454764-.53051984.0332675l-.53957507.01892302.00032842-2.10921677.52260038-.01606292.50065361-.02834737.28704-.02024.35328-.03128zm-6.97901686-.11570986.10355214.03947298c.08015358.03438683.14163992.07490877.1877002.12101639.046864.04691216.08871186.11008448.12478199.19254552.03365107.07693077.06497708.17098108.09324131.28170049l.05346076.24683831.09570721.47458652.04627058.18632233c.03550682.1168579.05251858.1580878.14374396.24255801.07388246.06841152.16066865.11663579.25460449.14292813l.00149308.14387643c-.57487732-.1049053-1.12513955-.23550947-1.64582865-.38855571.01267636-.09367422.02791354-.18652609.04594577-.27859161l.06295029-.28368844.0606941-.21859728.09766013-.29160654.08264473-.2079964c.05800053-.13747718.12189933-.27185044.19137791-.40280913zm8.84346166-.1932224.0775512.13669953.1122356.21683356.1153184.25526206.0724763.18402824c.0548994.1461051.1028152.2952883.1438276.44732159l.0539911.21970783.02834.13806738c.0180322.09206552.0332694.18491739.0459458.27859161-.4960013.14578974-1.0188378.27121508-1.5642239.37346086l-.0477158-.19531555-.0320787-.10666729.0021392-.2290242-.0027468-.44656856-.0132578-.62223621-.0164124-.45637084c.2542508-.0406285.50447-.08576709.7502813-.1352276zm-7.5691243-2.91553207c.04407939 0 .08186174.01418293.11334702.04254882.03148528.02836588.14561944.69417608.1959959.91007194.05037645.21589585.11688911.39278862.19953798.53067831.06198666.10341727.13902721.19110034.23112167.26304921l.09711242.06670414c.13300702.08004015.30168403.14316663.50603101.18937944l.81638618.15228738.07769741.02049449c.00801839.00289399.01332321.00549992.01554249.00777702.03148528.03230559.04722792.07130866.04722792.11700925s-.01574264.08470366-.04722792.11700925l-.01259247.00667763-.06331562.01761927-.04691248.01036164c-.20603454.04343851-.61368275.10770621-.77214864.1426282l-.19848847.05239808c-.12401704.03887177-.23141684.08562293-.32219941.14025351-.13617386.08194587-.24558521.19186366-.32823409.32975335-.08264887.13788969-.14916153.31438849-.19953798.5294964l-.15917287.78582349-.02998674.11158676c-.00257778.00653053-.00486846.01083958-.00683629.01266169-.03148528.02915382-.06926763.04373073-.11334702.04373073s-.08186174-.01457691-.11334702-.04373073c-.01626472-.01506033-.05143407-.1753102-.08727858-.35301225l-.08746475-.44005044c-.04093088-.19068175-.09052019-.35260363-.14876797-.48576567-.03883185-.0887747-.08448551-.1677439-.13696098-.23690762l-.0067007-.00729329c-.02330635-.03160272-.04947581-.06141669-.07712887-.08909817-.08894593-.08903734-.19953799-.1619219-.33177619-.21865365-.13223819-.05673176-.292026-.10440218-.47936343-.1430113l-.57263861-.10909598c-.11406652-.02338893-.20101387-.04425706-.21252567-.05637165-.03069815-.03230559-.04604723-.07130866-.04604723-.11700925s.01534908-.08470366.04604723-.11700925c.03069814-.03230558.68480493-.13079822.8949692-.17728674s.38333334-.11070572.51950718-.19265159c.13617386-.08194587.24597878-.19186366.32941479-.32975335.083436-.13788969.15034223-.31478246.20071868-.53067831l.15917287-.7862667.02998674-.11128206c.00257778-.00648743.00486846-.01075031.00683629-.01252318.03148528-.02836589.06926763-.04254882.11334702-.04254882zm2.7795338.4324.00009383 2.0882231-.05870365-.00083563c.02575159-.06928968.03907602-.14337386.03907602-.21978747 0-.16521861-.06229099-.31954728-.17780332-.43806911l-.1502689-.10162334c-.03858982-.0240003-.05019941-.02594162-.07728846-.03047136l-.09483071-.02405418-.83230998-.15554992c-.14237115-.03253732-.26583671-.07874366-.3532017-.13131763-.07139836-.04296567-.12684721-.09867116-.17086209-.1721047-.01879766-.03136162-.03693848-.06724833-.05426963-.10763859l.01701588-.15466645c.58102387-.30245446 1.22782776-.49556123 1.91335271-.55210472zm.8441324 0c.6855249.05654349 1.3323288.24965026 1.9133527.55210472l.0140922.12223349.0326014.33528103c.0294402.30772863.0546499.62070304.0754731.93817871-.1745971.02091352-.3510641.03967558-.529278.05620888l-.4947812.03981501-.51346142.02865882-.42580856.01418019-.07228405.00156225zm2.821421 1.15795117c.2098075.17522662.4052152.36711759.5841888.57363866l-.1724141.03398644-.3591565.06281833-.037849-.50098153z" fill="#000" fill-rule="evenodd"/></g></svg>