<?xml version="1.0" encoding="UTF-8"?>
<svg width="36" height="36" version="1.1" viewBox="0 0 36 36" xml:space="preserve" xmlns="http://www.w3.org/2000/svg">
 <defs>
  <filter id="filter1" x="-.147" y="-.147" width="1.294" height="1.294" color-interpolation-filters="sRGB">
   <feGaussianBlur stdDeviation="1.5925"/>
  </filter>
  <linearGradient id="linearGradient1" x1="18" x2="18" y1="3" y2="29" gradientUnits="userSpaceOnUse">
   <stop stop-color="#3fa8f3" offset="0"/>
   <stop stop-color="#2089d4" offset="1"/>
  </linearGradient>
 </defs>
 <circle cx="18" cy="18" r="13" filter="url(#filter1)" opacity=".35"/>
 <circle cx="18" cy="16" r="13" fill="url(#linearGradient1)" stroke="#fff" stroke-width="2"/>
 <path d="m22.0727273 15.2989091c.0897617 0 .1667003.0288816.2308158.0866449.0641154.0577632.2965341 1.4135948.3991188 1.8532373.1025848.4396426.2380288.7998605.4063319 1.0806541.1683031.2807935.3911044.504626.668404.6714976l.1931389.1017115.1434696.0676527.1147798.04577c.0894771.0337799.1839215.0652045.283333.0942738l.3255886.0829009 1.4651383.2686253.2797686.0622977c.0424311.0117852.0696548.0219698.0775758.0300971.0641154.065786.0961732.1452105.0961732.2382735 0 .0930629-.0320578.1724874-.0961732.2382734-.0641154.0657858-1.3929089.2663526-1.8224827.3610201-.4295738.0946677-.7830103.2254373-1.0603099.3923089s-.5001009.3907041-.668404.6714976c-.1683031.2807936-.3037471.6402093-.4063319 1.0782473l-.3151534 1.5602875-.0402771.1693621c-.0181985.0694431-.0331967.1138731-.0436883.1235878-.0641155.0593677-.1410541.0890516-.2308158.0890516s-.1667004-.0296839-.2308158-.0890516c-.0224404-.0207787-.0625526-.1772791-.1087911-.3885987l-.2470499-1.2263654c-.041675-.1941486-.087758-.3736561-.1382489-.5385219l-.1150485-.3311444-.0496482-.1195292c-.1186137-.2711664-.2684837-.4974057-.4496098-.6787181-.1811264-.1813125-.4063319-.3297319-.675617-.4452583-.2019638-.086645-.4354845-.1629105-.7005618-.2287968l-.4151186-.089905-1.101825-.210349-.2038673-.0463675c-.0849658-.0213724-.1411631-.0395998-.1536656-.052757-.0625126-.065786-.0937689-.1452105-.0937689-.2382734 0-.093063.0312563-.1724875.0937689-.2382735.0149178-.0156988.1021294-.0390731.2320975-.0668522l1.5903852-.2941679c.427971-.0946677.7806061-.2254373 1.0579056-.3923089.2772994-.1668716.5009022-.3907041.6708082-.6714976.1274296-.2105952.2359251-.4658665.3254864-.7658143l.1054616-.4145696.2823107-1.4131854.0455629-.1967276c.0205966-.0810434.037526-.133227.0490336-.1435945.0641154-.0577633.1410541-.0866449.2308158-.0866449zm-7.2794511 6.0763484.6920557.0731095.4799336.0382948.8402216.0514766.6117308.0200637-.0009429 1.8225896-.2414332-.0240108-.2393988-.0316363c-.3953564-.058968-.7804492-.1493584-1.1526561-.2685492l-.1977402-.0664486c-.1920275-.0675943-.3804099-.1429231-.5647731-.2256125-.0829975-.4496914-.158677-.9134145-.2269974-1.3892768zm5.0815345.1254233c.1561416.0756174.2836005.1646006.3853426.2664473.0899372.0900296.1707469.2005834.2419618.3335197l.0934081.2005447.1202659.3420368.0631618.2310597.2636119-.1097547c-.1843633.0826894-.3727456.1580182-.5647732.2256125l-.1977401.0664486c-.372207.1191908-.7572997.2095812-1.1526561.2685492l-.2393988.0316363-.2414333.0240108-.0009429-1.8225896.6117309-.0200637zm-7.2740084-.4833177.4610939.0916003.4673486.083628.1094838.7596224c-.238771-.1768898-.4660964-.3681337-.680988-.5723074zm1.8215896-3.4697843-.0246899-.5025595.8272261.0913009.428713.0377102.776957.0520385.3991328.0172184.587487.0192221-.0037438 1.7960302c-.2474616.0562082-.2810403.0831817-.4156441.2248325-.1815229.1910281-.27783.4357514-.27783.6991734 0 .075216.0078519.1489076.0232975.2202599l.0275534.1035801-.0654137-.0017256c-.7070067-.0351032-1.3986232-.0979388-2.0715227-.1861922-.0925023-.829926-.1635004-1.6896375-.2115226-2.5708889zm-3.7393393-1.0147524-.0116344-.2305178.6745363.1781794.5978455.1407916.3531889.0758983.3281747.0643639.5375257.0998697.034523.7474594c.0177863.3221564.0387029.641541.0631767.9574595l.053331.6838297.0640692.6699854c-.6380436-.1179576-1.2560002-.2592667-1.8507447-.4217851-.1592462-.2987546-.298461-.6096999-.4157005-.931538l-.092093-.2670266-.0977152-.3300568-.0882591-.3624455-.0714891-.3776108-.0511991-.3769188zm10.091352.6094887-.0633004.2463609c-.0668636.2219605-.1534023.4255715-.2494985.5843839-.1138447.1881444-.2595159.3339652-.4433496.4445916-.209857.1262865-.4957039.2322886-.8574241.3123016l-.5151884.0937269-.0000252-1.5611706.5861489-.0192221.400471-.0172184.776957-.0520385zm4.6170136-.8400065-.0116344.2305178-.0275359.3199375-.0511991.3769188-.0714891.3776108-.0882591.3624455-.1177901.3912944-.0720181.205789-.0565397.141774-.2661776-.0716521-.1636702-.0568352-.1032672-.0413018-.1059289-.0513349-.1667416-.088545c-.1498583-.0914492-.2941686-.2364274-.4062767-.4234664-.1034469-.1725888-.1954896-.3968731-.2731442-.6724322l-.0554965-.2162769c-.0182619-.078264-.0309254-.1364019-.0627551-.2971623l.4743528-.0924117.3531889-.0758983.7649496-.1830049zm-10.5907972-3.4966642.1958008.0216429.5780946.0508509.35328.0240873.7988945.0428218.6908131.0217749.0004777 3.0679517-.7848365-.0275244c-.2593665-.0126834-.5166424-.0288487-.7716652-.0483891l-.7588002-.0680216c-.2505685-.0259957-.4987582-.0551973-.7444193-.087476-.0063411-.3278601-.0095466-.6578397-.0095466-.989548l.0040425-.6804621.1275157-.6242352c.0406525-.172583.0917624-.3243857.1491015-.4467676l.0592589-.112255c.0326992-.0545547.069737-.1023827.1119885-.1444505zm6.8716401-.0427872.023251.6707299c.0112948.4172515.0175018.8382279.0184748 1.2621101-.1173615.0419878-.2248275.1070759-.3199279.1927544-.1282454.1155399-.1618218.1681444-.2072834.3215853l-.0703733.2708401-.0824865.4022097-.8325595.0757737c-.2550228.0195404-.5122986.0357057-.7716652.0483891l-.7848364.0275244.0004777-3.0679517.760146-.0233642.7282234-.0412325.4175127-.02944.5138619-.0454982zm-10.1512973-.1683052.1506213.0574152c.1165871.0500172.2060217.1089582.2730185.1760238.0681658.0682359.1290354.1601229.1815011.2800663.048947.1118993.0945121.2486997.1356237.4097461l.0777611.3590376.1392105.6903076.0673027.2710143c.0516463.1699752.0763906.2299459.2090821.3528117.1074654.0995076.2336998.169652.3703338.2078954l.0021717.2092748c-.8361851-.1525895-1.6365666-.3425592-2.3939325-.5651719.0184383-.1362534.0406015-.2713107.0668302-.4052242l.091564-.4126377.0882824-.3179597.1420511-.4241549.1202105-.3025403c.0843644-.1999668.1773081-.3954188.2783678-.5859041zm12.863217-.2810508.1128018.1988357.1632517.3153942.1677359.3712903.1054201.2676775c.0798537.2125165.1495494.4295102.2092038.6506495l.0785324.3195751.0412219.2008252c.0262287.1339135.0483919.2689708.0668302.4052242-.7214564.2120578-1.4819459.3944947-2.2752347.5432158l-.0694049-.2840954-.0466599-.1551524.0031117-.3331261-.0039955-.6495542-.019284-.9050709-.0238726-.6638121c.3698193-.059096.7337745-.1247522 1.0913182-.1966947zm-11.0096353-4.24077393c.0641154 0 .1190716.02062973.1648683.06188919.0457968.04125947.2118101 1.00971067.285085 1.32374101.0732748.31403033.1700205.57132893.2902371.77189573.0901624.1504251.2022213.2779641.3361769.382617l.1412545.0970242c.1934647.1164221.4388131.2082424.7360451.275461l1.1874708.221509.1130144.0298101c.0116631.0042095.0193792.0079999.0226072.011312.0457968.04699.0686952.1037217.0686952.1701953s-.0228984.1232053-.0686952.1701953l-.0183163.0097129-.0920954.025628-.0682364.0150715c-.2996866.0631833-.8926294.1566636-1.1231253.2074592l-.2887105.0762154c-.1803884.0565408-.3366063.1245424-.4686536.2040051-.1980711.119194-.3572149.2790744-.4774314.4796412-.1202166.2005669-.2169623.4572924-.2902371.7701766l-.2315242 1.143016-.0436171.162308c-.0037495.009499-.0070814.0157667-.0099437.018417-.0457967.0424056-.1007529.0636084-.1648683.0636084-.0641155 0-.1190717-.0212028-.1648684-.0636084-.0236578-.0219059-.0748132-.2549966-.1269507-.5134723l-.1272215-.6400734c-.0595358-.2773553-.1316657-.512878-.2163897-.7065683-.0564827-.1291268-.122888-.2439911-.199216-.3445929l-.0097465-.0106084c-.0339001-.0459676-.0719648-.0893333-.1121874-.1295973-.1293759-.1295089-.2902371-.2355228-.4825836-.3180417-.1923464-.0825189-.4247651-.1518577-.6972559-.2080164l-.8329289-.1586851c-.1659149-.0340202-.2923838-.0643739-.3091282-.0819951-.0446519-.04699-.0669778-.1037217-.0669778-.1701953s.0223259-.1232053.0669778-.1701953c.0446518-.0469899.9960799-.1902519 1.3017734-.2578716.3056935-.0676196.5575757-.1610265.7556468-.2802205s.3577873-.2790744.4791488-.4796412c.1213614-.2005668.2186796-.4578654.2919544-.77189573l.2315242-1.14366065.0436171-.16186482c.0037495-.00943626.0070814-.01563682.0099437-.01821554.0457967-.04125946.1007529-.06188919.1648684-.06188919zm4.0429582.62894546.0001365 3.03741537-.0853871-.0012154c.0374568-.100785.0568378-.2085438.0568378-.3196909 0-.240318-.0906051-.464796-.258623-.6371914l-.2185729-.1478158c-.0561307-.0349095-.0730174-.0377332-.1124196-.044322l-.1379356-.0349879-1.2106327-.2262544c-.2070853-.047327-.3866716-.1145362-.5137479-.1910075-.1038522-.0624955-.1845051-.14352164-.2485267-.25033406-.0273421-.0456169-.0537287-.09781575-.0789376-.15656522l.0247503-.22496938c.8451257-.43993376 1.7859313-.72081633 2.7830585-.80306141zm1.227829 0c.9971271.08224508 1.9379328.36312765 2.7830584.80306141l.0204978.17779417.0474202.48768149c.0428221.4476053.0794908.9028408.1097791 1.3646236-.2539595.0304197-.5106388.0577099-.769859.0817584l-.7196816.0579127-.7468531.0416855-.6193579.0206258-.1051404.0022723zm4.1038851 1.68429257c.3051745.2548751.5894039.5339893.8497291.8343835l-.2507841.0494349-.5224094.0913721-.0550532-.7287004z" fill="#fff" fill-rule="evenodd"/>
</svg>
