<?xml version="1.0" encoding="UTF-8"?>
<!--Generator: Apple Native CoreSVG 341-->
<!DOCTYPE svg
PUBLIC "-//W3C//DTD SVG 1.1//EN"
       "http://www.w3.org/Graphics/SVG/1.1/DTD/svg11.dtd">
<svg version="1.1" xmlns="http://www.w3.org/2000/svg" xmlns:xlink="http://www.w3.org/1999/xlink" viewBox="0 0 3300 2200">
 <!--glyph: "", point size: 100.0, font version: "20.0d10e1", template writer version: "138.0.0"-->
 <style>.monochrome-0 {-sfsymbols-motion-group:1;-sfsymbols-layer-tags:-32d7b1fcd256f1d5 55cd4bd80694509d circle}
.monochrome-1 {-sfsymbols-motion-group:1;-sfsymbols-layer-tags:-32d7b1fcd256f1d5 55cd4bd80694509d 58be399073040090 ferry.fill}
.monochrome-2 {opacity:0.0;-sfsymbols-clear-behind:true;-sfsymbols-motion-group:0;-sfsymbols-layer-tags:-32d7b1fcd256f1d5 _slash}
.monochrome-3 {-sfsymbols-motion-group:0;-sfsymbols-layer-tags:-32d7b1fcd256f1d5 _slash}

.multicolor-0:tintColor {-sfsymbols-motion-group:1;-sfsymbols-layer-tags:-32d7b1fcd256f1d5 55cd4bd80694509d circle}
.multicolor-1:tintColor {-sfsymbols-motion-group:1;-sfsymbols-layer-tags:-32d7b1fcd256f1d5 55cd4bd80694509d 58be399073040090 ferry.fill}
.multicolor-2:tintColor {opacity:0.0;-sfsymbols-clear-behind:true;-sfsymbols-motion-group:0;-sfsymbols-layer-tags:-32d7b1fcd256f1d5 _slash}
.multicolor-3:tintColor {-sfsymbols-motion-group:0;-sfsymbols-layer-tags:-32d7b1fcd256f1d5 _slash}

.hierarchical-0:secondary {-sfsymbols-motion-group:1;-sfsymbols-layer-tags:-32d7b1fcd256f1d5 55cd4bd80694509d circle}
.hierarchical-1:secondary {-sfsymbols-motion-group:1;-sfsymbols-layer-tags:-32d7b1fcd256f1d5 55cd4bd80694509d 58be399073040090 ferry.fill}
.hierarchical-2:primary {opacity:0.0;-sfsymbols-clear-behind:true;-sfsymbols-motion-group:0;-sfsymbols-layer-tags:-32d7b1fcd256f1d5 _slash}
.hierarchical-3:primary {-sfsymbols-motion-group:0;-sfsymbols-layer-tags:-32d7b1fcd256f1d5 _slash}

.SFSymbolsPreviewWireframe {fill:none;opacity:1.0;stroke:black;stroke-width:0.5}
</style>
 <g id="Notes">
  <rect height="2200" id="artboard" style="fill:white;opacity:1" width="3300" x="0" y="0"/>
  <line style="fill:none;stroke:black;opacity:1;stroke-width:0.5;" x1="263" x2="3036" y1="292" y2="292"/>
  <text style="stroke:none;fill:black;font-family:sans-serif;font-size:13;font-weight:bold;" transform="matrix(1 0 0 1 263 322)">Weight/Scale Variations</text>
  <text style="stroke:none;fill:black;font-family:sans-serif;font-size:13;text-anchor:middle;" transform="matrix(1 0 0 1 559.711 322)">Ultralight</text>
  <text style="stroke:none;fill:black;font-family:sans-serif;font-size:13;text-anchor:middle;" transform="matrix(1 0 0 1 856.422 322)">Thin</text>
  <text style="stroke:none;fill:black;font-family:sans-serif;font-size:13;text-anchor:middle;" transform="matrix(1 0 0 1 1153.13 322)">Light</text>
  <text style="stroke:none;fill:black;font-family:sans-serif;font-size:13;text-anchor:middle;" transform="matrix(1 0 0 1 1449.84 322)">Regular</text>
  <text style="stroke:none;fill:black;font-family:sans-serif;font-size:13;text-anchor:middle;" transform="matrix(1 0 0 1 1746.56 322)">Medium</text>
  <text style="stroke:none;fill:black;font-family:sans-serif;font-size:13;text-anchor:middle;" transform="matrix(1 0 0 1 2043.27 322)">Semibold</text>
  <text style="stroke:none;fill:black;font-family:sans-serif;font-size:13;text-anchor:middle;" transform="matrix(1 0 0 1 2339.98 322)">Bold</text>
  <text style="stroke:none;fill:black;font-family:sans-serif;font-size:13;text-anchor:middle;" transform="matrix(1 0 0 1 2636.69 322)">Heavy</text>
  <text style="stroke:none;fill:black;font-family:sans-serif;font-size:13;text-anchor:middle;" transform="matrix(1 0 0 1 2933.4 322)">Black</text>
  <line style="fill:none;stroke:black;opacity:1;stroke-width:0.5;" x1="263" x2="3036" y1="1903" y2="1903"/>
  <g transform="matrix(0.2 0 0 0.2 263 1933)">
   <path d="m46.2402 4.15039c21.7773 0 39.4531-17.627 39.4531-39.4043s-17.6758-39.4043-39.4531-39.4043c-21.7285 0-39.4043 17.627-39.4043 39.4043s17.6758 39.4043 39.4043 39.4043Zm0-7.42188c-17.6758 0-31.9336-14.3066-31.9336-31.9824s14.2578-31.9824 31.9336-31.9824 31.9824 14.3066 31.9824 31.9824-14.3066 31.9824-31.9824 31.9824Zm-17.9688-31.9824c0 2.14844 1.51367 3.61328 3.75977 3.61328h10.498v10.5957c0 2.19727 1.46484 3.71094 3.61328 3.71094 2.24609 0 3.71094-1.51367 3.71094-3.71094v-10.5957h10.5957c2.19727 0 3.71094-1.46484 3.71094-3.61328 0-2.19727-1.51367-3.71094-3.71094-3.71094h-10.5957v-10.5469c0-2.24609-1.46484-3.75977-3.71094-3.75977-2.14844 0-3.61328 1.51367-3.61328 3.75977v10.5469h-10.498c-2.24609 0-3.75977 1.51367-3.75977 3.71094Z"/>
  </g>
  <g transform="matrix(0.2 0 0 0.2 281.506 1933)">
   <path d="m58.5449 14.5508c27.4902 0 49.8047-22.3145 49.8047-49.8047s-22.3145-49.8047-49.8047-49.8047-49.8047 22.3145-49.8047 49.8047 22.3145 49.8047 49.8047 49.8047Zm0-8.30078c-22.9492 0-41.5039-18.5547-41.5039-41.5039s18.5547-41.5039 41.5039-41.5039 41.5039 18.5547 41.5039 41.5039-18.5547 41.5039-41.5039 41.5039Zm-22.6562-41.5039c0 2.39258 1.66016 4.00391 4.15039 4.00391h14.3555v14.4043c0 2.44141 1.66016 4.15039 4.05273 4.15039 2.44141 0 4.15039-1.66016 4.15039-4.15039v-14.4043h14.4043c2.44141 0 4.15039-1.61133 4.15039-4.00391 0-2.44141-1.70898-4.15039-4.15039-4.15039h-14.4043v-14.3555c0-2.49023-1.70898-4.19922-4.15039-4.19922-2.39258 0-4.05273 1.70898-4.05273 4.19922v14.3555h-14.3555c-2.49023 0-4.15039 1.70898-4.15039 4.15039Z"/>
  </g>
  <g transform="matrix(0.2 0 0 0.2 304.924 1933)">
   <path d="m74.8535 28.3203c35.1074 0 63.623-28.4668 63.623-63.5742s-28.5156-63.623-63.623-63.623-63.5742 28.5156-63.5742 63.623 28.4668 63.5742 63.5742 63.5742Zm0-9.08203c-30.127 0-54.4922-24.3652-54.4922-54.4922s24.3652-54.4922 54.4922-54.4922 54.4922 24.3652 54.4922 54.4922-24.3652 54.4922-54.4922 54.4922Zm-28.8574-54.4922c0 2.58789 1.85547 4.39453 4.58984 4.39453h19.7266v19.7754c0 2.68555 1.85547 4.58984 4.44336 4.58984 2.68555 0 4.54102-1.85547 4.54102-4.58984v-19.7754h19.7754c2.68555 0 4.58984-1.80664 4.58984-4.39453 0-2.73438-1.85547-4.58984-4.58984-4.58984h-19.7754v-19.7266c0-2.73438-1.85547-4.63867-4.54102-4.63867-2.58789 0-4.44336 1.9043-4.44336 4.63867v19.7266h-19.7266c-2.73438 0-4.58984 1.85547-4.58984 4.58984Z"/>
  </g>
  <text style="stroke:none;fill:black;font-family:sans-serif;font-size:13;font-weight:bold;" transform="matrix(1 0 0 1 263 1953)">Design Variations</text>
  <text style="stroke:none;fill:black;font-family:sans-serif;font-size:13;" transform="matrix(1 0 0 1 263 1971)">Symbols are supported in up to nine weights and three scales.</text>
  <text style="stroke:none;fill:black;font-family:sans-serif;font-size:13;" transform="matrix(1 0 0 1 263 1989)">For optimal layout with text and other symbols, vertically align</text>
  <text style="stroke:none;fill:black;font-family:sans-serif;font-size:13;" transform="matrix(1 0 0 1 263 2007)">symbols with the adjacent text.</text>
  <line style="fill:none;stroke:#00AEEF;stroke-width:0.5;opacity:1.0;" x1="776" x2="776" y1="1919" y2="1933"/>
  <g transform="matrix(0.2 0 0 0.2 776 1933)">
   <path d="m16.5527 0.78125c2.58789 0 3.85742-0.976562 4.78516-3.71094l6.29883-17.2363h28.8086l6.29883 17.2363c0.927734 2.73438 2.19727 3.71094 4.73633 3.71094 2.58789 0 4.24805-1.5625 4.24805-4.00391 0-0.830078-0.146484-1.61133-0.537109-2.63672l-22.9004-60.9863c-1.12305-2.97852-3.125-4.49219-6.25-4.49219-3.02734 0-5.07812 1.46484-6.15234 4.44336l-22.9004 61.084c-0.390625 1.02539-0.537109 1.80664-0.537109 2.63672 0 2.44141 1.5625 3.95508 4.10156 3.95508Zm13.4766-28.3691 11.8652-32.8613h0.244141l11.8652 32.8613Z"/>
  </g>
  <line style="fill:none;stroke:#00AEEF;stroke-width:0.5;opacity:1.0;" x1="792.836" x2="792.836" y1="1919" y2="1933"/>
  <text style="stroke:none;fill:black;font-family:sans-serif;font-size:13;font-weight:bold;" transform="matrix(1 0 0 1 776 1953)">Margins</text>
  <text style="stroke:none;fill:black;font-family:sans-serif;font-size:13;" transform="matrix(1 0 0 1 776 1971)">Leading and trailing margins on the left and right side of each symbol</text>
  <text style="stroke:none;fill:black;font-family:sans-serif;font-size:13;" transform="matrix(1 0 0 1 776 1989)">can be adjusted by modifying the x-location of the margin guidelines.</text>
  <text style="stroke:none;fill:black;font-family:sans-serif;font-size:13;" transform="matrix(1 0 0 1 776 2007)">Modifications are automatically applied proportionally to all</text>
  <text style="stroke:none;fill:black;font-family:sans-serif;font-size:13;" transform="matrix(1 0 0 1 776 2025)">scales and weights.</text>
  <g transform="matrix(0.2 0 0 0.2 1289 1933)">
   <path d="m14.209 9.32617 8.49609 8.54492c4.29688 4.3457 9.22852 4.05273 13.8672-1.07422l53.4668-58.9355-4.83398-4.88281-53.0762 58.3984c-1.75781 2.00195-3.41797 2.49023-5.76172 0.146484l-5.85938-5.81055c-2.34375-2.29492-1.80664-4.00391 0.195312-5.81055l57.373-54.0039-4.88281-4.83398-57.959 54.4434c-4.93164 4.58984-5.32227 9.47266-1.02539 13.8184Zm32.0801-90.9668c-2.09961 2.05078-2.24609 4.93164-1.07422 6.88477 1.17188 1.80664 3.4668 2.97852 6.68945 2.14844 7.32422-1.70898 14.9414-2.00195 22.0703 2.68555l-2.92969 7.27539c-1.70898 4.15039-0.830078 7.08008 1.85547 9.81445l11.4746 11.5723c2.44141 2.44141 4.49219 2.53906 7.32422 2.05078l5.32227-0.976562 3.32031 3.36914-0.195312 2.7832c-0.195312 2.49023 0.439453 4.39453 2.88086 6.78711l3.80859 3.71094c2.39258 2.39258 5.46875 2.53906 7.8125 0.195312l14.5508-14.5996c2.34375-2.34375 2.24609-5.32227-0.146484-7.71484l-3.85742-3.80859c-2.39258-2.39258-4.24805-3.17383-6.64062-2.97852l-2.88086 0.244141-3.22266-3.17383 1.2207-5.61523c0.634766-2.83203-0.146484-5.0293-3.07617-7.95898l-10.9863-10.9375c-16.6992-16.6016-38.8672-16.2109-53.3203-1.75781Zm7.4707 1.85547c12.1582-8.88672 28.6133-7.37305 39.7461 3.75977l12.1582 12.0605c1.17188 1.17188 1.36719 2.09961 1.02539 3.80859l-1.61133 7.42188 7.51953 7.42188 4.93164-0.292969c1.26953-0.0488281 1.66016 0.0488281 2.63672 1.02539l2.88086 2.88086-12.207 12.207-2.88086-2.88086c-0.976562-0.976562-1.12305-1.36719-1.07422-2.68555l0.341797-4.88281-7.4707-7.42188-7.61719 1.26953c-1.61133 0.341797-2.34375 0.195312-3.56445-0.976562l-10.0098-10.0098c-1.26953-1.17188-1.41602-2.00195-0.634766-3.85742l4.39453-10.4492c-7.8125-7.27539-17.9688-10.4004-28.125-7.42188-0.78125 0.195312-1.07422-0.439453-0.439453-0.976562Z"/>
  </g>
  <text style="stroke:none;fill:black;font-family:sans-serif;font-size:13;font-weight:bold;" transform="matrix(1 0 0 1 1289 1953)">Exporting</text>
  <text style="stroke:none;fill:black;font-family:sans-serif;font-size:13;" transform="matrix(1 0 0 1 1289 1971)">Symbols should be outlined when exporting to ensure the</text>
  <text style="stroke:none;fill:black;font-family:sans-serif;font-size:13;" transform="matrix(1 0 0 1 1289 1989)">design is preserved when submitting to Xcode.</text>
  <text id="template-version" style="stroke:none;fill:black;font-family:sans-serif;font-size:13;text-anchor:end;" transform="matrix(1 0 0 1 3036 1933)">Template v.6.0</text>
  <text style="stroke:none;fill:black;font-family:sans-serif;font-size:13;text-anchor:end;" transform="matrix(1 0 0 1 3036 1951)">Requires Xcode 16 or greater</text>
  <text id="descriptive-name" style="stroke:none;fill:black;font-family:sans-serif;font-size:13;text-anchor:end;" transform="matrix(1 0 0 1 3036 1969)">Generated from </text>
  <text style="stroke:none;fill:black;font-family:sans-serif;font-size:13;text-anchor:end;" transform="matrix(1 0 0 1 3036 1987)">Typeset at 100.0 points</text>
  <text style="stroke:none;fill:black;font-family:sans-serif;font-size:13;" transform="matrix(1 0 0 1 263 726)">Small</text>
  <text style="stroke:none;fill:black;font-family:sans-serif;font-size:13;" transform="matrix(1 0 0 1 263 1156)">Medium</text>
  <text style="stroke:none;fill:black;font-family:sans-serif;font-size:13;" transform="matrix(1 0 0 1 263 1586)">Large</text>
 </g>
 <g id="Guides">
  <g id="H-reference" style="fill:#27AAE1;stroke:none;" transform="matrix(1 0 0 1 339 696)">
   <path d="M0.993654 0L3.63775 0L29.3281-67.1323L30.0303-67.1323L30.0303-70.459L28.1226-70.459ZM11.6885-24.4799L46.9815-24.4799L46.2315-26.7285L12.4385-26.7285ZM55.1196 0L57.7637 0L30.6382-70.459L29.4326-70.459L29.4326-67.1323Z"/>
  </g>
  <line id="Baseline-S" style="fill:none;stroke:#27AAE1;opacity:1;stroke-width:0.5;" x1="263" x2="3036" y1="696" y2="696"/>
  <line id="Capline-S" style="fill:none;stroke:#27AAE1;opacity:1;stroke-width:0.5;" x1="263" x2="3036" y1="625.541" y2="625.541"/>
  <g id="H-reference" style="fill:#27AAE1;stroke:none;" transform="matrix(1 0 0 1 339 1126)">
   <path d="M0.993654 0L3.63775 0L29.3281-67.1323L30.0303-67.1323L30.0303-70.459L28.1226-70.459ZM11.6885-24.4799L46.9815-24.4799L46.2315-26.7285L12.4385-26.7285ZM55.1196 0L57.7637 0L30.6382-70.459L29.4326-70.459L29.4326-67.1323Z"/>
  </g>
  <line id="Baseline-M" style="fill:none;stroke:#27AAE1;opacity:1;stroke-width:0.5;" x1="263" x2="3036" y1="1126" y2="1126"/>
  <line id="Capline-M" style="fill:none;stroke:#27AAE1;opacity:1;stroke-width:0.5;" x1="263" x2="3036" y1="1055.54" y2="1055.54"/>
  <g id="H-reference" style="fill:#27AAE1;stroke:none;" transform="matrix(1 0 0 1 339 1556)">
   <path d="M0.993654 0L3.63775 0L29.3281-67.1323L30.0303-67.1323L30.0303-70.459L28.1226-70.459ZM11.6885-24.4799L46.9815-24.4799L46.2315-26.7285L12.4385-26.7285ZM55.1196 0L57.7637 0L30.6382-70.459L29.4326-70.459L29.4326-67.1323Z"/>
  </g>
  <line id="Baseline-L" style="fill:none;stroke:#27AAE1;opacity:1;stroke-width:0.5;" x1="263" x2="3036" y1="1556" y2="1556"/>
  <line id="Capline-L" style="fill:none;stroke:#27AAE1;opacity:1;stroke-width:0.5;" x1="263" x2="3036" y1="1485.54" y2="1485.54"/>
  <line id="right-margin-Black-S" style="fill:none;stroke:#00AEEF;stroke-width:0.5;opacity:1.0;" x1="2982.23" x2="2982.23" y1="600.785" y2="720.121"/>
  <line id="left-margin-Black-S" style="fill:none;stroke:#00AEEF;stroke-width:0.5;opacity:1.0;" x1="2884.57" x2="2884.57" y1="600.785" y2="720.121"/>
  <line id="right-margin-Regular-S" style="fill:none;stroke:#00AEEF;stroke-width:0.5;opacity:1.0;" x1="1496.11" x2="1496.11" y1="600.785" y2="720.121"/>
  <line id="left-margin-Regular-S" style="fill:none;stroke:#00AEEF;stroke-width:0.5;opacity:1.0;" x1="1403.58" x2="1403.58" y1="600.785" y2="720.121"/>
  <line id="right-margin-Ultralight-S" style="fill:none;stroke:#00AEEF;stroke-width:0.5;opacity:1.0;" x1="603.773" x2="603.773" y1="600.785" y2="720.121"/>
  <line id="left-margin-Ultralight-S" style="fill:none;stroke:#00AEEF;stroke-width:0.5;opacity:1.0;" x1="515.649" x2="515.649" y1="600.785" y2="720.121"/>
 </g>
 <g id="Symbols">
  <g id="Black-S" transform="matrix(1 0 0 1 2884.57 696)">
   <path class="monochrome-0 multicolor-0:tintColor hierarchical-0:secondary SFSymbolsPreviewWireframe" d="M48.8281 6.73828C72.0215 6.73828 90.8203-12.0605 90.8203-35.2539C90.8203-58.4473 72.0215-77.2461 48.8281-77.2461C25.6348-77.2461 6.83594-58.4473 6.83594-35.2539C6.83594-12.0605 25.6348 6.73828 48.8281 6.73828ZM48.8281-7.42188C33.4473-7.42188 20.9961-19.873 20.9961-35.2539C20.9961-50.6348 33.4473-63.0859 48.8281-63.0859C64.209-63.0859 76.6602-50.6348 76.6602-35.2539C76.6602-19.873 64.209-7.42188 48.8281-7.42188Z"/>
   <path class="monochrome-1 multicolor-1:tintColor hierarchical-1:secondary SFSymbolsPreviewWireframe" d="M48.829-9.01598C55.3163-9.01598 55.8936-13.1003 58.3449-13.1003C60.7828-13.1003 61.1783-9.01598 68.2624-9.01598L68.4757-9.01598C70.127-9.01598 71.4492-10.3352 71.4492-11.985C71.4492-13.6088 70.127-14.9295 68.4757-14.9295L68.2624-14.9295C67.1991-14.9295 66.2508-15.2728 64.3765-16.6193C63.0735-17.5805 61.0775-19.0138 58.3449-19.0138C55.6244-19.0138 53.6299-17.591 52.3269-16.6344C50.9218-15.6045 50.1015-14.9295 48.829-14.9295C47.5581-14.9295 46.7378-15.6045 45.3327-16.6344C44.0298-17.591 42.0353-19.0138 39.3132-19.0138C36.5821-19.0138 34.5831-17.5805 33.2802-16.6193C31.4059-15.2728 30.4605-14.9295 29.3958-14.9295L29.1825-14.9295C27.5297-14.9295 26.2104-13.6088 26.2104-11.985C26.2104-10.3352 27.5297-9.01598 29.1825-9.01598L29.3958-9.01598C36.4814-9.01598 36.8753-13.1003 39.3132-13.1003C41.7646-13.1003 42.3434-9.01598 48.829-9.01598ZM48.829-18.0758C48.9416-18.0758 49.1015-18.1865 50.4702-19.1815C53.5086-21.4108 55.7007-22.1601 58.3449-22.1601C60.8999-22.1601 62.9853-21.4299 65.3875-19.7993L70.3123-26.6533C72.5857-29.9023 71.532-33.245 68.2743-34.7335L52.7587-41.8051C52.0349-42.1289 50.7019-42.8759 48.829-42.8759C46.9578-42.8759 45.6248-42.1289 44.901-41.8051L29.3854-34.7335C26.1277-33.245 25.0741-29.9023 27.3473-26.6533L32.2722-19.7993C34.6743-21.4299 36.7582-22.1601 39.3132-22.1601C41.959-22.1601 44.1511-21.4108 47.1894-19.1815C48.5581-18.1865 48.718-18.0758 48.829-18.0758ZM48.829-45.9937C50.6857-45.9937 51.8166-45.65 54.0591-44.6362L65.8039-39.2883L64.1772-50.6423C63.6254-54.5765 62.0193-56.0425 58.3379-56.0425L39.3141-56.0425C35.6328-56.0425 34.0222-54.5765 33.475-50.6709L31.8452-39.2838L43.6006-44.6362C45.8431-45.65 46.9739-45.9937 48.829-45.9937ZM40.9486-48.1613C40.2078-48.1613 39.7049-48.6323 39.7049-49.4568L39.7049-51.5972C39.7049-52.4217 40.2078-52.8912 40.9486-52.8912L45.3974-52.8912C46.2997-52.8912 46.859-52.4217 46.859-51.5972L46.859-49.4568C46.859-48.6323 46.2997-48.1613 45.3974-48.1613ZM52.0368-48.1613C51.2398-48.1613 50.7947-48.6323 50.7947-49.4568L50.7947-51.5972C50.7947-52.4217 51.2398-52.8912 52.0368-52.8912L56.4871-52.8912C57.3894-52.8912 57.9487-52.4217 57.9487-51.5972L57.9487-49.4568C57.9487-48.6323 57.3894-48.1613 56.4871-48.1613ZM39.3945-54.2512L58.2576-54.2512L58.2576-57.9306C58.2576-60.4919 57.0451-61.4107 54.4868-61.4107L43.1668-61.4107C40.6055-61.4107 39.3945-60.4919 39.3945-57.9306Z"/>
   <path class="monochrome-2 multicolor-2:tintColor hierarchical-2:primary SFSymbolsPreviewWireframe" d="M92.7999-4.48836C96.451-0.837264 96.451 5.09118 92.7999 8.74227C89.1488 12.3934 83.2204 12.3934 79.5693 8.74227L4.85636-65.9706C1.20527-69.6217 1.20527-75.5502 4.85636-79.2013C8.50745-82.8524 14.4359-82.8524 18.087-79.2013Z" data-clipstroke-keyframes="0 0 0.0 0.5 0.6082697 0 1.0 0.10826972 0.0"/>
   <path class="monochrome-3 multicolor-3:tintColor hierarchical-3:primary SFSymbolsPreviewWireframe" d="M88.6498-0.338247C90.0104 1.02234 90.0104 3.23158 88.6498 4.59217C87.2892 5.95275 85.08 5.95275 83.7194 4.59217L9.00647-70.1207C7.64588-71.4813 7.64588-73.6906 9.00647-75.0511C10.3671-76.4117 12.5763-76.4117 13.9369-75.0511Z" data-clipstroke-keyframes="0 0 0.0 0.5 0.5458696 0 1.0 0.04586959 0.0"/>
  </g>
  <g id="Regular-S" transform="matrix(1 0 0 1 1403.58 696)">
   <path class="monochrome-0 multicolor-0:tintColor hierarchical-0:secondary SFSymbolsPreviewWireframe" d="M46.2402 4.15039C68.0176 4.15039 85.6934-13.4766 85.6934-35.2539C85.6934-57.0312 68.0176-74.6582 46.2402-74.6582C24.5117-74.6582 6.83594-57.0312 6.83594-35.2539C6.83594-13.4766 24.5117 4.15039 46.2402 4.15039ZM46.2402-3.27148C28.5645-3.27148 14.3066-17.5781 14.3066-35.2539C14.3066-52.9297 28.5645-67.2363 46.2402-67.2363C63.916-67.2363 78.2227-52.9297 78.2227-35.2539C78.2227-17.5781 63.916-3.27148 46.2402-3.27148Z"/>
   <path class="monochrome-1 multicolor-1:tintColor hierarchical-1:secondary SFSymbolsPreviewWireframe" d="M46.2715-10.0974C52.1084-10.0974 52.8481-14.0642 55.5355-14.0642C58.2596-14.0642 58.7083-10.0974 65.2513-10.0974L65.3975-10.0974C66.5804-10.0974 67.539-11.0545 67.539-12.2512C67.539-13.4374 66.5804-14.3806 65.3975-14.3806L65.2513-14.3806C63.6482-14.3806 62.602-15.0036 60.9796-16.1641C59.7103-17.0916 57.9478-18.3474 55.5355-18.3474C53.0708-18.3474 51.2944-17.0532 50.025-16.1133C48.6702-15.1002 47.7494-14.3806 46.2715-14.3806C44.7796-14.3806 43.8588-15.1002 42.504-16.1133C41.2346-17.0532 39.4583-18.3474 37.0074-18.3474C34.5812-18.3474 32.8171-17.0916 31.5478-16.1641C29.9253-15.0036 28.8808-14.3806 27.2916-14.3806L27.1454-14.3806C25.947-14.3806 24.99-13.4374 24.99-12.2512C24.99-11.0545 25.947-10.0974 27.1454-10.0974L27.2916-10.0974C33.8207-10.0974 34.2833-14.0642 37.0074-14.0642C39.6948-14.0642 40.4206-10.0974 46.2715-10.0974ZM46.2715-17.1034C46.732-17.1034 46.9895-17.2418 48.4017-18.2984C50.3989-19.7721 52.6445-21.0701 55.5355-21.0701C57.6625-21.0701 59.3927-20.4938 61.4468-19.1638L66.7063-27.5552C68.6426-30.5931 67.8044-33.2798 64.7438-34.6873L49.9618-41.4486C49.2228-41.7807 47.9961-42.4509 46.2715-42.4509C44.533-42.4509 43.3062-41.7807 42.5672-41.4486L27.7852-34.6873C24.7246-33.2798 23.8865-30.5931 25.8227-27.5552L31.0822-19.1638C33.1363-20.4938 34.8804-21.0701 37.0074-21.0701C39.8845-21.0701 42.1301-19.7721 44.1273-18.2984C45.5395-17.2418 45.7971-17.1034 46.2715-17.1034ZM46.2715-45.4379C48.0427-45.4379 49.1371-45.0986 51.2108-44.1573L61.9959-39.2194L60.365-51.118C59.9784-53.941 58.5542-55.4688 55.8217-55.4688L36.7179-55.4688C33.9854-55.4688 32.603-53.941 32.1747-50.8538L30.5422-39.2317L41.3182-44.1573C43.3919-45.0986 44.4863-45.4379 46.2715-45.4379ZM38.0129-47.5708C37.4162-47.5708 37.0195-47.9537 37.0195-48.5852L37.0195-51.2053C37.0195-51.8368 37.4162-52.2336 38.0129-52.2336L43.2745-52.2336C44.0258-52.2336 44.4901-51.8368 44.4901-51.2053L44.4901-48.5852C44.4901-47.9537 44.0258-47.5708 43.2745-47.5708ZM49.0135-47.5708C48.4081-47.5708 48.0357-47.9537 48.0357-48.5852L48.0357-51.2053C48.0357-51.8368 48.4081-52.2336 49.0135-52.2336L54.2907-52.2336C55.042-52.2336 55.5063-51.8368 55.5063-51.2053L55.5063-48.5852C55.5063-47.9537 55.042-47.5708 54.2907-47.5708ZM37.5948-54.3602L54.9449-54.3602L54.9449-56.7714C54.9449-58.972 53.7658-60.0126 51.5669-60.0126L40.9589-60.0126C38.7583-60.0126 37.5948-58.972 37.5948-56.7714Z"/>
   <path class="monochrome-2 multicolor-2:tintColor hierarchical-2:primary SFSymbolsPreviewWireframe" d="M87.318-6.06714C90.5994-2.78573 90.5994 2.54245 87.318 5.82386C84.0366 9.10527 78.7084 9.10527 75.427 5.82386L5.2113-64.3918C1.92989-67.6733 1.92989-73.0014 5.2113-76.2828C8.49271-79.5643 13.8209-79.5643 17.1023-76.2828Z" data-clipstroke-keyframes="0 0 0.0 0.5 0.60452837 0 1.0 0.104528375 0.0"/>
   <path class="monochrome-3 multicolor-3:tintColor hierarchical-3:primary SFSymbolsPreviewWireframe" d="M83.8515-2.60066C85.2197-1.23245 85.2197 0.98917 83.8515 2.35738C82.4833 3.72558 80.2617 3.72558 78.8935 2.35738L8.67778-67.8583C7.30957-69.2265 7.30957-71.4482 8.67778-72.8164C10.046-74.1846 12.2676-74.1846 13.6358-72.8164Z" data-clipstroke-keyframes="0 0 0.0 0.5 0.5487678 0 1.0 0.048767686 0.0"/>
  </g>
  <g id="Ultralight-S" transform="matrix(1 0 0 1 515.649 696)">
   <path class="monochrome-0 multicolor-0:tintColor hierarchical-0:secondary SFSymbolsPreviewWireframe" d="M44.0606 1.97072C64.6118 1.97072 81.2886-14.7026 81.2886-35.2539C81.2886-55.8052 64.6118-72.4785 44.0606-72.4785C23.5127-72.4785 6.83594-55.8052 6.83594-35.2539C6.83594-14.7026 23.5127 1.97072 44.0606 1.97072ZM44.0606-0.274438C24.7046-0.274438 9.0391-15.898 9.0391-35.2539C9.0391-54.6099 24.7046-70.2334 44.0606-70.2334C63.4165-70.2334 79.04-54.6099 79.04-35.2539C79.04-15.898 63.4165-0.274438 44.0606-0.274438Z"/>
   <path class="monochrome-1 multicolor-1:tintColor hierarchical-1:secondary SFSymbolsPreviewWireframe" d="M44.0668-12.5902C48.9385-12.5902 49.7355-16.472 53.1488-16.472C56.6353-16.472 57.1524-12.5902 62.7191-12.5902L62.8168-12.5902C63.3158-12.5902 63.7116-13.0004 63.7116-13.5095C63.7116-14.0042 63.3158-14.4044 62.8168-14.4044L62.7191-14.4044C60.5157-14.4044 59.2487-15.3496 57.8083-16.3606C56.5632-17.2639 55.1346-18.2862 53.1488-18.2862C51.0941-18.2862 49.6555-17.2051 48.4104-16.2773C47.092-15.2764 45.9183-14.4044 44.0668-14.4044C42.2051-14.4044 41.0315-15.2764 39.7131-16.2773C38.468-17.2051 37.0294-18.2862 34.9847-18.2862C32.9889-18.2862 31.5747-17.2639 30.3296-16.3606C28.8891-15.3496 27.6078-14.4044 25.4144-14.4044L25.3168-14.4044C24.822-14.4044 24.4119-14.0042 24.4119-13.5095C24.4119-13.0004 24.822-12.5902 25.3168-12.5902L25.4144-12.5902C30.9711-12.5902 31.4982-16.472 34.9847-16.472C38.398-16.472 39.1849-12.5902 44.0668-12.5902ZM44.0668-16.2357C45.2741-16.2357 45.9325-16.6945 47.3009-17.7355C48.546-18.6633 50.5-20.1176 53.1488-20.1176C54.6964-20.1176 55.9598-19.6825 57.2671-18.9148L62.5732-28.8824C64.0707-31.6626 63.3583-33.5001 60.7553-34.6989L47.5392-40.7858C46.6241-41.2139 45.5342-41.7235 44.0668-41.7235C42.5893-41.7235 41.4994-41.2139 40.5843-40.7858L27.3682-34.6989C24.7651-33.5001 24.0528-31.6626 25.5503-28.8824L30.8563-18.9148C32.1637-19.6825 33.4371-20.1176 34.9847-20.1176C37.6235-20.1176 39.5775-18.6633 40.8226-17.7355C42.191-16.6945 42.8494-16.2357 44.0668-16.2357ZM44.0668-43.7453C45.7614-43.7453 46.9795-43.274 48.3758-42.6253L58.2573-38.0587L56.5784-50.0655C56.281-52.2358 54.9583-53.568 52.8212-53.568L35.3411-53.568C33.204-53.568 31.9113-52.2358 31.5839-49.8751L29.9194-38.0831L39.7477-42.6253C41.144-43.274 42.3621-43.7453 44.0668-43.7453ZM35.8053-45.6579C35.4177-45.6579 35.1579-45.9321 35.1579-46.334L35.1579-49.5859C35.1579-49.9879 35.4177-50.2721 35.8053-50.2721L41.9093-50.2721C42.3714-50.2721 42.6469-49.9879 42.6469-49.5859L42.6469-46.334C42.6469-45.9321 42.3714-45.6579 41.9093-45.6579ZM46.1572-45.6579C45.7652-45.6579 45.5054-45.9321 45.5054-46.334L45.5054-49.5859C45.5054-49.9879 45.7652-50.2721 46.1572-50.2721L52.2568-50.2721C52.7189-50.2721 52.9944-49.9879 52.9944-49.5859L52.9944-46.334C52.9944-45.9321 52.7189-45.6579 52.2568-45.6579ZM36.5081-53.0728L51.6542-53.0728L51.6542-55.0182C51.6542-56.6878 50.6794-57.6814 48.9953-57.6814L39.157-57.6814C37.4873-57.6814 36.5081-56.6878 36.5081-55.0182Z"/>
   <path class="monochrome-2 multicolor-2:tintColor hierarchical-2:primary SFSymbolsPreviewWireframe" d="M81.7485-3.06064C83.2711-1.53808 83.2711 0.934172 81.7485 2.45673C80.2259 3.97929 77.7537 3.97929 76.2311 2.45673L6.37605-67.3983C4.85349-68.9209 4.85349-71.3932 6.37605-72.9157C7.89861-74.4383 10.3709-74.4383 11.8934-72.9157Z" data-clipstroke-keyframes="0 0 0.0 0.5 0.55392593 0 1.0 0.053925958 0.0"/>
   <path class="monochrome-3 multicolor-3:tintColor hierarchical-3:primary SFSymbolsPreviewWireframe" d="M79.6976-1.00975C80.0883-0.619106 80.0883 0.0152006 79.6976 0.405845C79.307 0.796489 78.6727 0.796489 78.282 0.405845L8.42694-69.4492C8.03629-69.8399 8.03629-70.4742 8.42694-70.8648C8.81758-71.2555 9.45189-71.2555 9.84253-70.8648Z" data-clipstroke-keyframes="0 0 0.0 0.5 0.5139301 0 1.0 0.013930082 0.0"/>
  </g>
 </g>
</svg>
