<svg height="18" viewBox="0 0 18 18" width="18" xmlns="http://www.w3.org/2000/svg"><path d="m8.7396 2.252175c-2.317875 0-4.195275 1.879575-4.195275 4.19745v4.634775h8.9115v-4.634775c0-2.317875-1.879575-4.19745-4.19745-4.19745zm-1.36035 3.601875h3.2415c.21846 0 .3955725.1771125.3955725.3955725s-.1770825.3955725-.3955725.3955725h-3.2415c-.21846 0-.3955725-.1771125-.3955725-.3955725s.1771125-.3955725.3955725-.3955725zm0 1.582275h3.2415c.21846 0 .3955725.1771125.3955725.3955725s-.1770825.3955725-.3955725.3955725h-3.2415c-.21846 0-.3955725-.1771125-.3955725-.3955725s.1771125-.3955725.3955725-.3955725zm0 1.582275h3.2415c.21846 0 .3955725.1771125.3955725.3955725s-.1770825.3955725-.3955725.3955725h-3.2415c-.21846 0-.3955725-.1771125-.3955725-.3955725s.1771125-.3955725.3955725-.3955725zm-3.8964 2.8569c-.21846 0-.3955725.1771125-.3955725.3955725v1.017525h11.82525v-1.017525c0-.21846-.1771125-.3955725-.3955725-.3955725zm-.8373 2.20425c-.21846 0-.3955725.1771125-.3955725.3955725v1.27245h13.5v-1.27245c0-.21846-.1771125-.3955725-.3955725-.3955725z" fill="#747e86"/></svg>