<svg height="12" viewBox="0 0 12 12" width="12" xmlns="http://www.w3.org/2000/svg"><path d="m5.8264 1.50145c-1.54525 0-2.79685 1.25305-2.79685 2.7983v3.08985h5.941v-3.08985c0-1.54525-1.25305-2.7983-2.7983-2.7983zm-.9069 2.40125h2.161c.14564 0 .263715.118075.263715.263715s-.118055.263715-.263715.263715h-2.161c-.14564 0-.263715-.118075-.263715-.263715s.118075-.263715.263715-.263715zm0 1.05485h2.161c.14564 0 .263715.118075.263715.263715s-.118055.263715-.263715.263715h-2.161c-.14564 0-.263715-.118075-.263715-.263715s.118075-.263715.263715-.263715zm0 1.05485h2.161c.14564 0 .263715.118075.263715.263715s-.118055.263715-.263715.263715h-2.161c-.14564 0-.263715-.118075-.263715-.263715s.118075-.263715.263715-.263715zm-2.5976 1.9046c-.14564 0-.263715.118075-.263715.263715v.67835h7.8835v-.67835c0-.14564-.118075-.263715-.263715-.263715zm-.5582 1.4695c-.14564 0-.263715.118075-.263715.263715v.8483h9v-.8483c0-.14564-.118075-.263715-.263715-.263715z" fill="#747e86"/></svg>