<svg height="18" viewBox="0 0 18 18" width="18" xmlns="http://www.w3.org/2000/svg"><g fill="none"><circle cx="9" cy="9" fill="#fff" opacity=".6" r="9"/><circle cx="9" cy="9" fill="#be75a3" r="8.25"/><path d="m10.1260311 7h2.1479378c.5225363 0 .9569777.40230633.9970544.9233035l.3461539 4.5c.0423583.550658-.3697 1.0313927-.920358 1.073751l-.0766965.0029455h-2.84024541c-.55228475 0-1-.4477153-1-1l.00294552-.0766965.34615384-4.5c.03699389-.48092046.41001455-.86070791.87817245-.91629106zm1.5739689-1.55v.8h.15c.0552285 0 .1.04477153.1.1v.3c0 .05522847-.0447715.1-.1.1h-1.3c-.0552285 0-.1-.04477153-.1-.1v-.3c0-.05522847.0447715-.1.1-.1h.15v-.8zm.8-.95c.0410098 0 .0791367.01234299.1108684.03351667l.675569.57141032c.0846149.07100036.0956517.19715148.0246513.28176641l-.2249756.26811556c-.0710004.08461493-.1971515.09565172-.2817664.02465136l-.5123467-.42946032h-2.292c-.16568542 0-.3-.13431458-.3-.3v-.15c0-.16568542.13431458-.3.3-.3zm-7.38518936 1.11193099 2.59574523-.00103708c.10225496 0 .18837581.06907835.21424234.16311486l.00767702.06979745-.53216064 5.49111838c-.01104057.1138668-.10674091.2007368-.2211417.2007368h-1.51153727c-.11440079 0-.21010113-.08687-.2211417-.2007368l-.53138298-5.48040991c-.01184209-.12213319.07756651-.23074161.1996997-.2425837zm-.11857226-1.11193099h2.85433175c.16360794 0 .29623838.13263044.29623838.29623838v.14811918c0 .16360794-.13263044.29623838-.29623838.29623838h-2.85433175c-.16360794 0-.29623838-.13263044-.29623838-.29623838v-.14811918c0-.14023538.09744277-.25771178.22831363-.28841451zm.9574468 7.4059594h.93943815c.16360793 0 .29623837.1326304.29623837.2962384v1.2590131c0 .1636079-.13263044.2962383-.29623837.2962383h-.93943815c-.16360793 0-.29623837-.1326304-.29623837-.2962383v-1.2590131c0-.163608.13263044-.2962384.29623837-.2962384z" fill="#fff" fill-rule="evenodd"/></g></svg>