<svg height="18" viewBox="0 0 18 18" width="18" xmlns="http://www.w3.org/2000/svg"><path d="m6.79 15 1.28751729-1.0457586.10997569-4.47000175c-.53268545-.28886475-.89438949-.85293264-.89438949-1.50148103 0-.67841154.39578109-1.26438345.96904276-1.53961523l.0605139-2.44314339h1.35467982l.0605139 2.44314339c.57326163.27523178.96904273.86120369.96904273 1.53961523 0 .64854839-.361704 1.21261628-.89438946 1.50148103l.10997569 4.47000175 1.28751717 1.0457586zm-.74952276-10.73082689-.02101936.83986951c-1.04514425.53325188-1.76083718 1.61990442-1.76083718 2.873716 0 1.19706711.6523778 2.24176318 1.62099529 2.79795028l-.02050586.8399087c-1.39029984-.6214614-2.35911013-2.01652132-2.35911013-3.63785898 0-1.69095052 1.05378886-3.13577547 2.54047724-3.71358551zm5.91930466.00010071c1.4865517.5778772 2.5402181 2.02263251 2.5402181 3.7134848 0 1.62134756-.9688221 3.01641458-2.3591356 3.63787028l-.0201745-.8400957c.968449-.5562313 1.6206894-1.60083349 1.6206894-2.79777458 0-1.2538003-.7156801-2.34044457-1.760809-2.87370161zm-4.71219116 1.04706014-.02922778.8478437c-.63462935.35776917-1.06319052 1.03812715-1.06319052 1.81858096 0 .7290075.3739232 1.37068057.94043916 1.74368875l-.0292578.84789893c-.9848844-.4472575-1.66980206-1.43943705-1.66980206-2.59158768 0-1.22158149.76995391-2.2633306 1.851039-2.66642466zm3.50519716.00014111c1.0808862.4031961 1.8506603 1.44484458 1.8506603 2.66628344 0 1.15200252-.6847416 2.14407509-1.6694222 2.59141519l-.0292545-.84797874c.5663014-.37304519.940056-1.01459328.940056-1.74343645 0-.78029768-.4283897-1.46053959-1.0628097-1.81836622z" fill="#747e86" fill-rule="evenodd"/></svg>